<?xml version="1.0" encoding="UTF-8" standalone="no"?>
<svg
   xmlns:dc="http://purl.org/dc/elements/1.1/"
   xmlns:cc="http://creativecommons.org/ns#"
   xmlns:rdf="http://www.w3.org/1999/02/22-rdf-syntax-ns#"
   xmlns:svg="http://www.w3.org/2000/svg"
   xmlns="http://www.w3.org/2000/svg"
   xmlns:sodipodi="http://sodipodi.sourceforge.net/DTD/sodipodi-0.dtd"
   xmlns:inkscape="http://www.inkscape.org/namespaces/inkscape"
   width="1600.5189"
   height="453.95172"
   viewBox="0 0 1280.4151 363.16138"
   version="1.1"
   id="svg2"
   inkscape:version="0.47 r22583"
   sodipodi:docname="Marilyn_Monroe_Signature.svg">
  <metadata
     id="metadata28">
    <rdf:RDF>
      <cc:Work
         rdf:about="">
        <dc:format>image/svg+xml</dc:format>
        <dc:type
           rdf:resource="http://purl.org/dc/dcmitype/StillImage" />
      </cc:Work>
    </rdf:RDF>
  </metadata>
  <defs
     id="defs26">
    <inkscape:perspective
       sodipodi:type="inkscape:persp3d"
       inkscape:vp_x="0 : 238.125 : 1"
       inkscape:vp_y="0 : 1000 : 0"
       inkscape:vp_z="1657.5 : 238.125 : 1"
       inkscape:persp3d-origin="828.75 : 158.75 : 1"
       id="perspective30" />
  </defs>
  <sodipodi:namedview
     pagecolor="#ffffff"
     bordercolor="#666666"
     borderopacity="1"
     objecttolerance="10"
     gridtolerance="10"
     guidetolerance="10"
     inkscape:pageopacity="0"
     inkscape:pageshadow="2"
     inkscape:window-width="1079"
     inkscape:window-height="708"
     id="namedview24"
     showgrid="false"
     inkscape:zoom="0.32579186"
     inkscape:cx="315.28611"
     inkscape:cy="222.31128"
     inkscape:window-x="0"
     inkscape:window-y="0"
     inkscape:window-maximized="0"
     inkscape:current-layer="svg2" />
  <path
     d="m 840.23512,0.70685635 c 6.08,-1.08 12.31,-0.59 18.46,-0.63 8.38,1.33000005 17.56,2.27000005 24.14,8.24000005 4.26,4.1299996 8.27,9.7999996 7.28,16.0499996 -1.64,9.66 -4.66,19.19 -9.77,27.6 -2.94,4.78 -5.31,9.91 -8.66,14.43 -5.13,6.87 -9.8,14.13 -15.88,20.22 -4.06,4.8 -8.77,8.97 -13.16,13.460004 8.79,-0.770004 17.14,-4.380004 26.04,-4.140004 5.45,0.06 11.44,-1.03 16.29,2.12 3.07,1.93 6.36,4.050004 8.13,7.330004 1.88,3.84 -0.71,7.77 -2.02,11.33 6.57,-3.07 12.44,-7.88 19.65,-9.42 5.89,-0.44 11.98,-0.88 17.73,0.79 -0.93,3.5 -1.59,7.27 -3.96,10.14 -5.08,5.98 -11.75,10.26 -17.24,15.82 -6,6.05 -13.02,10.94 -19.03,16.97 -4.24,4.2 -9.5,7.38 -12.89,12.4 2.68,-0.54 5.4,-1.27 7.73,-2.79 9,-5.8 18.89,-10.11 27.69,-16.23 4.6,-3.02 7.03,-8.38 11.76,-11.22 12.47,-5.83 26.45,-7.98 40.15,-7.39 3.92,0.08 8.01,-0.79 11.79,0.63 3.25,1.7 3.38,5.75 4.18,8.88 8.67,-4.9 17.38,-9.76 26.29998,-14.19 5.1,-2.4 10.97,-0.77 15.73,1.66 3.46,1.34 3.34,6.4 0.92,8.68 -6.83,7.32 -16.73,10.28 -25.01998,15.47 2.41,0.32 4.97998,0.75 7.31998,-0.27 10.75,-4.1 20.43,-10.54 29.48,-17.56 8.78,-7.2 19.97,-10.78 28.4,-18.45 2.04,0.89 4.25,1.56 6.03,2.96 0.46,2.75 0.35,5.55 0.45,8.32 5.75,2.98 12.16,4.17 18.05,6.77 -0.09,1.68 -0.17,3.36 -0.27,5.05 -3.39,0.15 -6.83,-0.14 -10.16,0.58 -4.3,1.5 -8.12,4.06 -12.12,6.17 0.09,0.78 0.26,2.34 0.35,3.12 6.66,-2.16 13.62,-3.01 20.39,-4.72 4.39,-0.89 7.48,-4.26 10.94,-6.8 5.24,-4.02 11.94,-5.57 16.93,-9.97 2.67,-2.5 6.38,-4.07 9.99,-2.68 2.64,1.95 4.22,5.48 7.7,6.15 5.17,1.12 10.48,3.34 15.83,1.87 4.49,-1.28 9.15,-1.64 13.82,-1.58 0.89,-2.17 1.48,-4.53 2.94,-6.43 2.75,-2.14 6.22,-3.08 9.11,-5.06 7.4,-5.08 14.13,-11.53 22.83,-14.37 4.95,-1.990004 10.36,-1.270004 15.54,-0.950004 0.37,2.680004 1.77,5.970004 -0.58,8.170004 -3.29,3.07 -6.72,6.01 -9.95,9.16 -9.43,7.84 -21.42,11.52 -33.13,14.42 -2.18,0.34 -2.56,3.14 -1.68,4.81 1.78,4.49 6.71,6.26 10.8,8.04 9.1,3.78 19.02,5.63 28.88,5.46 14.91,-0.24 30.29,2.55 44.79,-2.21 7.33,-1.81 14.83,-3.63 21.38,-7.53 2.88,-1.98 6.35,-2.41 9.78,-2.33 -0.43,2.27 -0.59,4.93 -2.71,6.35 -7.23,5.54 -16.29,7.65 -24.76,10.57 -12.52,4.13 -25.92,4.49 -38.96,3.52 -3.1,-0.43 -6.2,0 -9.29,0.11 -6.14,-0.13 -12.27,-0.91 -18.24,-2.34 -10.18,-1.83 -21.19,-4.11 -28.44,-12.14 -2.89,-2.64 -2.68,-6.77 -3.05,-10.33 -7.3,1.54 -14.79,1.43 -22.2,1.1 -4.45,-0.24 -8.51,-2.2 -12.43,-4.12 -2.41,4.32 -4.2,9.07 -7.52,12.81 -5.63,5.99 -13.88,9.48 -22.11,9.31 -3.57,0.16 -4.7,-3.9 -6.79,-6.02 -3.6,0.15 -6.73,2.31 -10.28,2.73 -3.4,0.39 -6.82,0.64 -10.2,1.12 -3.59,0.49 -7.04,-0.86 -10.4,-1.85 0.11,-2.7 -0.06,-5.46 0.6,-8.11 3.85,-4.32 8.9,-7.35 13.93,-10.12 -3.59,-2.23 -6.68,-5.14 -8.96,-8.7 -9.56,5.35 -18.37,11.94 -27.19,18.4 -9.71,6.18 -19.95,11.59 -30.89,15.24 -4.83998,0.97 -9.89998,0.51 -14.55998,-1.06 0.26,-3.18 -0.43,-7.12 2.35,-9.42 4.87,-4.16 11.26,-5.82 16.42998,-9.54 3.14,-2.23 6.57,-3.98 9.88,-5.95 -0.57,-0.64 -1.71,-1.92 -2.27,-2.56 -12.3,5.16 -24.69998,10.51 -35.49998,18.44 -10.65,7.27 -20.76,15.29 -31.66,22.19 -2.75,1.63 -6.07,1.18 -9.11,1.29 0.27,-2.5 -0.04,-5.37 1.71,-7.42 4.21,-4.8 10.52,-6.74 15.73,-10.17 6.2,-4.55 12.31,-9.56 16.23,-16.3 -6.39,-0.43 -12.8,-0.22 -19.2,-0.2 -4.03,-0.37 -6.33,3.56 -9.77,4.85 -4.18,1.62 -8.2,3.59 -12.02,5.92 -3.76,2.28 -8.57,3.61 -10.83,7.7 -4.5,7.92 -9.96,16.56 -18.97,19.75 -2.46,1.12 -4.86,-0.59 -7.13,-1.38 0.79,-3.51 1.88,-6.93 3.21,-10.28 -4.47,2.19 -8.51,5.08 -12.64,7.81 -8.85,4.62 -17.96,8.73 -26.78,13.42 -3.36,1.68 -6.02,4.42 -8.24,7.39 -6.73,9.03 -12.51,18.73 -19.34,27.68 -2.48,3.3 -4.18,7.09 -6.7,10.36 -7.07,9.43 -12.55,19.93 -19.47,29.46 -2.61,3.51 -4.1,7.78 -7.09,11 -2.55,0.73 -5.25,0.34 -7.85,0.36 0.21,-2.74 0.52,-5.64 2.51,-7.73 6.98,-8.28 11.88,-18 17.88,-26.95 1.32,-2.03 2.44,-4.17 3.6,-6.28 2.11,-4.1 5.58,-7.23 8.08,-11.06 3.64,-4.79 5.9,-10.58 10.33,-14.77 2.61,-2.48 5.09,-5.19 6.46,-8.58 -5.88,1.95 -10.6,6.11 -16.15,8.73 -6.03,2.93 -12.24,5.45 -18.22,8.46 0.84,2.73 1.55,5.51 2,8.33 -5.55,0.58 -9.74,-3.41 -12.87,-7.44 -0.84,-1.66 -0.61,-4.07 1.2,-5 3.87,-2.37 8.46,-3.17 12.44,-5.37 12.99,-6.86 26.84,-12.11 39.34,-19.89 7.11,-5.86 14.12,-11.87 21.37,-17.58 7.51,-5.79 13.36,-13.37 20.74,-19.31 6.56,-6.8 13.79,-12.87 20.69,-19.31 4.14,-3.76 9.17,-6.62 12.41,-11.3 -4.37,0.06 -8.52,1.56 -12.37,3.5 -9.63,4.95 -20.27,8.18 -28.8,15.07 -6.95,5.7 -14.45,10.68 -21.26,16.55 -11.6,9.46 -25.05,16.2 -36.9,25.29 -5.72,4.7 -12.35,8.09 -18.14,12.68 -2.78,2.37 -6.58,2.05 -9.97,2.22 -0.16,-2.56 -0.49,-5.28 0.74,-7.65 1.23,-2.87 4.16,-4.34 6.59,-6.04 7.45,-4.76 14.26,-10.44 21.84,-14.99 5.85,-3.56 11.76,-7.02 17.68,-10.47 12.04,-8.2 25.24,-14.98 35.7,-25.3 3.86,-4.63 9.14,-8.38 11.29,-14.2 -1.1,-3.06 -3.9,-5.9 -7.36,-5.68 -5.06,-0.12 -10.11,0.03 -15.16,0.04 -4.64,-0.07 -8.97,1.8 -13.51,2.35 -4.97,0.77 -10.55,0.67 -14.59,4.13 -13.2,12.04 -25.16,25.51 -39.41,36.37 -7.74,4.9 -14.65,10.93 -22.23,16.03 -7.71,5.68 -15.19,11.73 -23.57,16.42 -10.19,5.65 -20.41,11.78 -31.91,14.32 -4.8,0.67 -9.74,0.77 -14.53,0.08 -3.39,-2.55 -3.43,-7.67 -1.21,-11 3.93,-6.54 9.64,-11.75 15.18,-16.91 6.51,-5.5 12.88,-11.27 20.32,-15.53 6.79,-3.94 12.98,-8.82 19.89,-12.57 13.84,-8.19 27.72,-16.47 42.73,-22.39 8.42,-4.5 17.33,-8.03 26.58,-10.44 2.81,-0.57 5.57,-1.75 7.35,-4.1 5.78,-6.910004 11.62,-13.760004 17.78,-20.320004 5.37,-6.96 10.62,-14 15.74,-21.14 4.21,-7.06 8.98,-14.03 10.63,-22.24 1.8,-7.13 5.78,-15.66 0.6,-22.31 -5.51,-4.9999996 -13.24,-7.3299996 -20.63,-6.8899996 -9.5,0.4 -19.21,-0.82 -28.52,1.64 -6.54,1.5699996 -13.43,0.9699996 -19.82,3.1799996 -5.64,1.8 -11.73,0.7 -17.32,2.67 -13.2,3.67 -26.83,5.8 -39.76,10.39 -12.93,3.12 -25.66,7.04 -38.17,11.55 -7.19,1.84 -14.04,4.75 -21.05,7.12 -12.88,4.42 -25.23,10.15 -37.96,14.94 -12.56,5.82 -24.65,12.61 -36.75,19.32 -5.37,2.85 -10.27,6.62 -14.25,11.22 4.84,0.29 9.87,-0.31 14.48,1.61 -4.04,4.97 -10.96,6.06 -17,5.56 -2.57,-0.17 -5.67,-1.7 -5.87,-4.57 -0.22,-4.7 2.97,-8.6 6.4,-11.42 10.14,-8.51 21.99,-14.64 33.89,-20.29 13.8,-7.62 28.91,-12.33 43.29,-18.67 6.53,-3.11 13.78,-3.92 20.49,-6.51 4.89,-1.44 9.32,-4.05 14.13,-5.69 8.27,-1.75 16.37,-4.27 24.38,-6.98 7.03,-3.16 14.82,-3.74 22.18,-5.87 7.95,-2.68 16.16,-4.52 24.28,-6.66 5.84,-1.6899996 12.09,-1.1399996 17.89,-3.1099996 4.75,-1.66 9.75,-2.28 14.65,-3.33 7.53,-1.54 15.33,-1.26 22.81,-3.15000005 z"
     id="path6"
     style="fill:#1e1e1e" />
  <path
     d="m 209.44512,64.426856 c 7.96,-2.05 16.2,-1.59 24.34,-1.62 5.53,-0.2 11.44,2.16 14.76,6.69 2.48,6.57 -0.56,13.47 -3.98,19.09 -7.9,12.790004 -18.24,23.810004 -27.76,35.370004 9.46,-0.82 19.77,-2.85 28.5,2.13 3.66,1.76 5.95,5.94 4.82,9.95 -1.45,4.92 -5.42,8.45 -8.59,12.29 -4.28,5.14 -10.21,8.63 -14.21,14.02 5.09,-0.18 9.11,-3.49 13.63,-5.34 6.98,-2.44 14.12,-5.33 21.69,-4.23 -0.32,2.51 0.33,5.81 -2.16,7.42 -4.1,3.27 -8.53,6.14 -12.45,9.65 -6.72,5.98 -14.14,11.11 -20.82,17.14 -4.97,4.77 -10.23,9.22 -15.75,13.34 -2.3,1.66 -4.18,3.8 -5.81,6.11 6.12,-0.88 11.02,-4.91 16.69,-7.03 14.19,-5.66 28.26,-11.58 42.21,-17.81 3.82,-1.79 7.5,-3.9 11.52,-5.24 4.44,-1.57 9.15,-2.57 13.2,-5.1 9.39,-5.54 19.48,-9.73 29.09,-14.87 4.9,-2.39 9.74,-5.35 15.23,-6.14 3.46,-1.05 4.6,4.55 2.1,6.16 -3.57,2.54 -7.96,3.52 -12.02,5.01 0.62,2.21 1.28,4.41 1.87,6.63 -8.32,5.37 -16.61,10.78 -24.7,16.49 -4.1,2.98 -9.3,4.93 -11.66,9.75 7.82,-0.28 15.09,-3.66 22.07,-6.91 9.79,-4.03 18.74,-9.82 27.44,-15.79 6.36,-4.18 10.86,-10.5 16.99,-14.97 2.2,-1.83 5.13,-0.81 7.67,-0.55 -0.4,3.48 -1.08,7.02 -3.11,9.96 -1.5,2.14 -2.15,4.67 -2.3,7.26 4.01,-0.78 7.92,-3 12.11,-2.21 2.51,1.13 2.72,4.16 3.47,6.46 -9.59,2.11 -18.11,7.2 -25.89,13.01 -1.32,1.07 -2.35,2.42 -3.42,3.73 4.63,0.08 8.91,-1.88 13.43,-2.49 4.11,-0.55 8.02,-1.92 12,-2.97 6.29,-1.55 11.52,-5.53 17.23,-8.37 6.21,-3.21 11.75,-7.59 18.08,-10.55 2.54,-1.46 4.71,1.23 6.76,2.37 -4.98,6.53 -12.98,9.17 -19.47,13.76 -5.07,3.49 -10.65,6.08 -16.07,8.94 -2.3,1.13 -4.16,2.92 -5.71,4.93 5.94,0.02 11.6,-2.2 17.48,-2.85 8.97,-2.4 18.21,-3.82 26.95,-7.06 4.08,-1.38 8.46,-2.46 11.67,-5.53 15.78,-14.82 33.35,-27.55 50.59,-40.57 3.39,-3.06 7.57,-5 11.32,-7.55 8.41,-7.23 18.34,-12.32 27.54,-18.43 7.25,-5.16 16.01,-7.58 23.37,-12.59 4.75,-3.33 10.41,-4.84 15.66,-7.180004 3.76,-1.66 7.96,-3.03 12.09,-1.98 2.56,1.39 3.5,5.130004 1.51,7.410004 -3.57,4.48 -9.01,6.88 -12.93,11 -4.32,4.54 -10.02,7.3 -15.04,10.93 -5.41,3.42 -10.25,7.69 -15.83,10.83 -10.26,5.46 -19.4,12.71 -29.26,18.81 -8.76,5.17 -16.48,12 -25.59,16.58 -7.16,3.25 -13.83,7.42 -20.66,11.28 -7.04,3.97 -15.36,5.29 -21.97,10.06 -2.23,1.5 -3.69,3.83 -4.34,6.41 8.84,-0.66 17.1,-4.42 24.54,-9.03 5.99,-4.77 12.13,-9.4 18.74,-13.28 2.41,-1.51 5.35,-1.1 8.05,-1.13 -0.48,2 -0.37,4.44 -2.13,5.86 -4.61,4.01 -10.13,6.76 -15.27,10.02 -1.7,0.99 -2.7,2.73 -3.76,4.31 7.56,-0.49 14.99,-2.28 22.13,-4.78 13.8,-5.61 27.07,-12.52 39.52,-20.73 2.46,-2.04 5.68,-1.09 8.48,-0.5 -0.39,2.81 -0.6,5.99 -2.95,7.95 -4.41,4.19 -9.3,7.94 -12.72,13.05 2.62,-1 5.31,-1.85 7.82,-3.11 11.4,-6.19 23.71,-10.56 36.14,-14.17 7.71,-1.36 15.36,-3.82 23.29,-2.95 0.14,2.05 0.29,4.11 0.45,6.17 7.92,-3.4 16.09,-6.43 24.57,-8.11 2.78,-0.71 4.77,1.63 6.65,3.25 -1.9,2.03 -3.88,3.98 -5.81,5.98 3.46,1.91 7,4.03 11.01,4.46 3.61,0.04 7.07,-1.19 10.56,-1.99 3.16,-0.8 6.45,-0.98 9.6,-1.9 4.22,-1.31 7.94,-3.84 12.14,-5.22 1.68,-0.47 3.26,0.71 4.85,1.14 -1.04,1.8 -1.89,3.81 -3.55,5.14 -6.23,4.44 -13.66,6.78 -21.12,8.12 -6.52,2.25 -13.53,2.64 -20.35,1.79 -2.77,-0.66 -5.38,-2.06 -7.51,-3.93 -2.19,-2.39 -3.55,-5.39 -5.3,-8.08 -10.68,4.34 -21.85,7.34 -32.65,11.33 -7.88,4.02 -16.2,7.34 -23.37,12.62 -2.21,1.66 -4.96,2.9 -7.77,2.19 -2.91,-1.47 -1.72,-5.15 -0.44,-7.35 4.44,-3.42 10,-5.02 14.47,-8.44 3.94,-3.08 9.73,-3.67 12.5,-8.12 -4.1,0.26 -8.17,1.08 -11.93,2.75 -14.28,6.19 -29.18,11.11 -42.6,19.12 -7.65,3.71 -12.71,10.78 -18.21,16.97 -6.46,6.54 -12.95,13.06 -19.35,19.66 -4.65,5.71 -10.12,10.65 -15.06,16.08 -11.18,12.17 -21.7,24.93 -32.9,37.09 -7.12,8.88 -16.41,15.7 -26.14,21.47 -6.56,3.82 -14.12,6.84 -21.85,5.81 -2.53,-0.25 -5.25,-1.91 -5.55,-4.64 -0.67,-5.18 0.25,-10.72 3.42,-14.98 4.95,-6.91 11.25,-12.68 17.06,-18.84 8.19,-8.19 16.21,-16.62 25.44,-23.66 9.85,-7.41 18.93,-15.85 29.34,-22.5 5.23,-3.32 10.08,-7.18 15.19,-10.66 4.84,-3.33 10.14,-5.9 15,-9.19 7.42,-5.07 15.69,-8.76 23.01,-13.97 5,-4.26 10.27,-8.37 14.14,-13.74 -5.43,-0.58 -9.44,3.61 -14,5.76 -9.95,4.94 -20.9,7.32 -31.59,10.06 -5.15,1.36 -10.19,-0.54 -14.56,-3.16 -6.42,4.27 -14.07,6.82 -21.82,6.51 -2.3,-0.07 -4.22,-1.74 -5.32,-3.64 -0.41,-2.25 0.67,-4.46 1.05,-6.65 -15.97,4.66 -31.91,11.64 -48.91,10.36 -2.61,0.1 -4.75,-1.67 -6.07,-3.76 -0.1,-2.28 0.7,-4.46 1.19,-6.66 -5.11,0.87 -9.85,3.48 -15.11,3.47 -4.28,-0.03 -8.56,1.08 -12.82,0.47 -3.07,-1.66 -2.14,-6.7 0.49,-8.46 5.57,-4.67 11.16,-9.38 17.31,-13.29 -1.09,-2.37 -2.14,-4.74 -3.23,-7.1 -6.07,5.2 -12.19,10.47 -19.38,14.11 -13.46,8.44 -28.49,14.89 -44.29,17.1 -2.55,-1.35 -4.27,-3.78 -6.24,-5.82 -5.26,3.77 -11.14,6.67 -17.29,8.68 -2.32,0.53 -5.82,0.77 -6.85,-1.95 -0.55,-2.08 -0.65,-4.4 0.15,-6.43 4.09,-3.34 10.39,-4.11 12.36,-9.68 -8.1,1.94 -14.85,7.04 -22.33,10.44 -10.2,4.09 -20.53,7.93 -30.35,12.89 -6.52,2.96 -13.4,5.04 -20.07,7.62 -4.42,1.67 -7.23,5.69 -10.34,9.02 -9.84,11.11 -21.01,20.96 -30.89,32.05 -7.84,8.53 -15.73,17.01 -22.9,26.13 -4.69,5.13 -8.73,10.78 -12.52,16.6 -7.15,9.33 -13.95,18.96 -19.850002,29.14 -4.12,8.56 -11.06,15.86 -12.96,25.39 4.83,-2.12 7.4,-6.91 11.02,-10.46 3.450002,-3.62 7.980002,-6.19 10.690002,-10.5 2.29,-3.55 5.16,-6.69 8.28,-9.52 1.74,-1.71 4.38,-1.33 6.59,-1.73 -0.57,4.71 -4.68,7.54 -7.27,11.13 -5.3,6.03 -9.57,12.92 -15.400002,18.49 -3.67,3.51 -6.82,8.37 -12.11,9.48 -2.74,0.39 -6.49,0.8 -8.05,-2.09 -0.7,-2.14 -0.26,-4.44 0.38,-6.52 2.07,-6.34 3.99,-12.79 7.33,-18.6 11.23,-16.56 21.660002,-33.76 34.670002,-49.04 4.77,-5.97 8.49,-12.76 13.87,-18.24 10.78,-11.19 21.15,-22.79 32.18,-33.73 5.33,-4.25 9.93,-9.29 14.83,-14.01 -3.02,-1 -5.98,-2.18 -8.85,-3.54 0.36,-2.46 0.19,-5.39 2.35,-7.11 4.08,-3.63 8.64,-6.68 12.7,-10.34 2.27,-2.33 5.52,-2.63 8.6,-2.56 -0.94,2.3 -1.89,4.75 -4.02,6.22 -3.96,3.03 -8.18,5.83 -11.28,9.8 3.39,-0.14 7.1,-0.16 9.96,-2.26 3.54,-2.71 6.33,-6.24 9.47,-9.39 7.85,-7.81 15.72,-15.64 24.38,-22.58 6.98,-6.31 15.61,-10.69 21.55,-18.14 -7.71,2.2 -14.74,6.1 -22.02,9.36 -9.78,4.66 -20,8.81 -28.49,15.69 -5.72,3.89 -11.31,7.99 -17.22,11.57 -10.52,5.62 -19.93,13.13 -30.75,18.22 -5.92,2.6 -10.96,7.82 -17.83,7.61 -0.1,-2.18 -1.49,-4.92 0.37,-6.7 2.85,-2.99 6.79,-4.52 10.36,-6.45 9.07,-4.74 17.62,-10.41 26.47,-15.55 5.47,-3.2 10.53,-7.13 16.33,-9.75 7.39,-4.17 14.41,-8.95 21.56,-13.51 7.34,-6.02 15.04,-11.7 21.34,-18.87 5.87,-6 12.2,-11.87 15.55,-19.76 -4.49,-2.29 -9.53,-3.1 -14.52,-2.69 -7.99,0.27 -17.39,-0.13 -23.31,6.26 -8.19,9.09 -16.95,17.66 -26.12,25.77 -8.04,8.14 -17.49,14.64 -26.56,21.55 -6.2,5.17 -12.75,9.89 -19.18,14.77 -9.35,6.25 -18.61,12.91 -29.18,16.98 -4.3,1.8 -8.990002,2.79 -13.670002,2.54 -2.41,0.13 -4.57,-2.13 -4.44,-4.52 -0.12,-3.93 0.58,-7.83 1.2,-11.7 0.42,-3.11 3,-5.2 4.83,-7.53 4.65,-5.64 9.310002,-11.3 14.660002,-16.3 8.21,-7.82 16.7,-15.58 26.7,-21.08 5,-2.96 9.61,-6.56 14.89,-9.04 6.94,-3.3 13.37,-7.74 20.79,-9.95 9.14,-2.76 17.69,-7.31 27.1,-9.17 4.94,-1.18 10.55,-2.25 13.73,-6.64 4.4,-5.84 8.93,-11.59 14.12,-16.76 4.29,-4.25 7.85,-9.230004 10.39,-14.720004 1.42,-3.43 4.36,-5.87 6.11,-9.09 0.75,-2.85 0.73,-5.89 0.33,-8.79 -2.47,-3.01 -6.78,-3.23 -10.38,-3.46 -16.31,-0.28 -32.21,4.37 -47.4,9.87 -6.71,3.11 -13.63,5.72 -20.51,8.42 -5.58,2.16 -10.39,5.84 -15.91,8.11 -12.01,5.190004 -23.29,11.980004 -35.77,16.060004 -9.05,2.65 -17.060002,8.04 -26.330002,10.02 -4.75,0.96 -8.54,4.08 -12.68,6.36 -4.22,1.67 -8.91,1.83 -13.01,3.88 -7.22,3.55 -14.92,5.98 -22.05,9.73 -8.34,3.41 -16.59,7.14 -24.1,12.14 -3.7200004,2.72 -7.2100004,5.81 -11.4500004,7.73 -1.17000003,-2.55 -2.64,-5.97 -0.22,-8.3 3.58,-3.19 7.99,-5.26 12.1900004,-7.49 4.74,-2.31 9.25,-5.12 14.23,-6.93 8.12,-2.81 15.99,-6.32 23.72,-10.07 6.31,-3.06 13.31,-4.42 19.52,-7.73 2.81,-1.52 5.68,-3.04 8.83,-3.73 5.68,-1.24 11.12,-3.37 16.32,-5.95 11.370002,-5.35 23.410002,-9.32 34.100002,-16.040004 4.32,-2.86 9.59,-3.55 14.1,-5.99 5.41,-2.84 10.7,-5.95 16.42,-8.14 8.95,-3.18 17.4,-7.65 26.46,-10.55 7.37,-2.2 14.49,-5.42 22.25,-6.02 z"
     id="path8"
     style="fill:#1e1e1e" />
  <path
     d="m 543.12512,110.99686 c 5.36,-3.04 10.92,-5.79 16.93,-7.27 -3.2,6.85 -10.77,9.23 -16.19,13.85 -6.39,4.33 -13.18,8.04 -19.55,12.41 -8.82,5.57 -18,10.58 -26.57,16.56 -5.54,4.27 -11.95,7.2 -17.57,11.35 -6.26,4.54 -12.63,8.98 -19.58,12.41 -4.84,2.35 -9.31,5.36 -13.96,8.03 -2.24,1.28 -4.85,2.48 -7.44,1.51 11.97,-8.59 23.76,-17.42 35.52,-26.29 11.71,-9.2 24.11,-17.52 36.9,-25.13 9.98,-6.7 20.62,-12.38 31.51,-17.43 z"
     id="path10"
     style="fill:#fdfdfd" />
  <path
     d="m 1186.4251,112.21686 c 3.98,-3.36 8.65,-6.23 14.02,-6.37 -2.17,2.95 -4.72,5.68 -7.91,7.52 -6.73,3.92 -13.12,9.41 -21.26,9.86 4.27,-4.69 10.38,-6.95 15.15,-11.01 z"
     id="path12"
     style="fill:#fdfdfd" />
  <path
     d="m 800.89512,122.38686 c 7.34,-2.19 13.01,-8.24 20.85,-9.04 -1.33,1.73 -2.68,3.47 -4.37,4.86 -11.55,9.14 -21.74,20.01 -34.26,27.9 -6.62,4.19 -12.35,9.59 -18.66,14.2 -8.01,5.82 -16.38,11.11 -24.78,16.32 -8.44,4.31 -16.94,8.74 -26.18,11.04 -1.64,0.38 -3.3,-0.12 -4.89,-0.41 2.83,-5.83 7.45,-10.46 12.45,-14.45 9.09,-7.44 18.43,-14.67 28.63,-20.54 8.56,-5.03 16.02,-11.75 24.92,-16.22 8.44,-5.13 17.21,-9.78 26.29,-13.66 z"
     id="path14"
     style="fill:#fdfdfd" />
  <path
     d="m 159.92512,148.40686 c 12.8,-5.96 26,-11.37 39.81,-14.46 -2.9,4.6 -7.87,7.14 -11.45,11.1 -4.57,4.81 -9.88,8.8 -14.64,13.42 -7.31,6.79 -15.48,12.53 -23.12,18.92 -6.71,5.29 -13.95,9.87 -20.47,15.38 -10.79,7.8 -22.24,15.62 -35.540002,18.17 -2.39,0.53 -2.91,-2.65 -1.84,-4.24 6.3,-12.19 16.160002,-21.96 26.110002,-31.2 4.34,-3.79 8.81,-7.47 13.75,-10.45 8.98,-5.79 17.53,-12.39 27.39,-16.64 z"
     id="path16"
     style="fill:#fdfdfd" />
  <path
     d="m 1093.2551,143.60686 c 4.38,-3.99 9.96,-6.37 15.53,-8.22 -2.23,6.02 -9.08,10.96 -15.53,8.22 z"
     id="path18"
     style="fill:#fdfdfd" />
  <path
     d="m 277.84512,187.64686 c 10.74,-5.93 20.14,-14.28 31.88,-18.34 -6.52,5.64 -14.03,9.99 -20.63,15.54 -6.01,4.99 -13.28,8.21 -20.79,10.18 2.88,-2.82 6.04,-5.37 9.54,-7.38 z"
     id="path20"
     style="fill:#fdfdfd" />
  <path
     d="m 462.45512,223.27686 c 4.44,-3.19 8.84,-6.46 13.91,-8.61 -5.64,7.48 -12.74,13.63 -19.62,19.92 -7.08,8.54 -15.64,15.69 -22.59,24.35 -7.38,7.66 -14.29,15.76 -21.04,23.98 -10.44,11.2 -22.02,22.1 -36.51,27.73 -3.15,1.4 -6.62,1.35 -9.96,0.87 1.04,-6.52 5.45,-11.64 9.94,-16.16 9.66,-11.3 20.22,-21.78 31.26,-31.71 17.58,-14.28 35.47,-28.23 54.61,-40.37 z"
     id="path22"
     style="fill:#fdfdfd" />
</svg>
