<svg width="24" height="24" viewBox="0 0 24 24" fill="none" xmlns="http://www.w3.org/2000/svg" className="size-[23px]">
    <path d="M21.281 6.328L16.36 4.922 14.953 0H6a3 3 0 00-3 3v18a3 3 0 003 3h12.281a3 3 0 003-3V6.328z" fill="url(#paint0_linear_3068_7112)"></path>
    <path d="M21.14 6.328H16.22a1.41 1.41 0 01-1.407-1.406V0a.66.66 0 01.493.211l5.625 5.625a.66.66 0 01.21.492z" fill="url(#paint1_linear_3068_7112)"></path>
    <path d="M7.895 10h8.232" stroke="url(#paint2_linear_3068_7112)" stroke-width="1.75" stroke-linecap="round"></path>
    <path d="M7.895 14.5h8.232" stroke="url(#paint3_linear_3068_7112)" stroke-width="1.75" stroke-linecap="round"></path>
    <path d="M7.895 19H12" stroke="url(#paint4_linear_3068_7112)" stroke-width="1.75" stroke-linecap="round"></path>
    <defs>
        <linearGradient id="paint0_linear_3068_7112" x1="12.1406" y1="24" x2="12.0495" y2="-0.000206587" gradientUnits="userSpaceOnUse">
            <stop stop-color="#A3A1A1"></stop>
            <stop offset="1" stop-color="#CFCFCF"></stop>
        </linearGradient>
        <linearGradient id="paint1_linear_3068_7112" x1="15.4148" y1="-0.301346" x2="17.4277" y2="7.41468" gradientUnits="userSpaceOnUse">
            <stop stop-color="#939191"></stop>
            <stop offset="1" stop-color="#171614"></stop>
        </linearGradient>
        <linearGradient id="paint2_linear_3068_7112" x1="8.67804" y1="9.95238" x2="8.93243" y2="11.7695" gradientUnits="userSpaceOnUse">
            <stop stop-color="#5C5959"></stop>
            <stop offset="1" stop-color="#0E0D0D"></stop>
        </linearGradient>
        <linearGradient id="paint3_linear_3068_7112" x1="8.67804" y1="14.4524" x2="8.93243" y2="16.2695" gradientUnits="userSpaceOnUse">
            <stop stop-color="#5C5959"></stop>
            <stop offset="1" stop-color="#0E0D0D"></stop>
        </linearGradient>
        <linearGradient id="paint4_linear_3068_7112" x1="8.28527" y1="18.9524" x2="8.76737" y2="20.6697" gradientUnits="userSpaceOnUse">
            <stop stop-color="#5C5959"></stop>
            <stop offset="1" stop-color="#0E0D0D"></stop>
        </linearGradient>
    </defs>
</svg>