<svg width="64" height="63" viewBox="0 0 64 63" fill="none" xmlns="http://www.w3.org/2000/svg"><path d="M30.808 13.63l-5.74-4.275a7.847 7.847 0 00-4.68-1.543H4.252a3.917 3.917 0 00-3.922 3.923V58.15a3.917 3.917 0 003.922 3.922h55.175a3.917 3.917 0 003.922-3.922V19.109a3.917 3.917 0 00-3.922-3.922h-23.94a7.95 7.95 0 01-4.68-1.556z" fill="url(#paint0_linear_7560_13082)"></path><path d="M57.873 11.936L46.138.487H19.231a2 2 0 00-2 2v48.379a2 2 0 002 2h36.642a2 2 0 002-2v-38.93z" fill="url(#paint1_linear_7560_13082)"></path><path d="M50.146 18.802h-24.33a1.715 1.715 0 110-3.43h24.33a1.715 1.715 0 110 3.43zm0 7.158h-24.33a1.715 1.715 0 110-3.43h24.33a1.715 1.715 0 110 3.43zm-8.023 7.158H25.816a1.715 1.715 0 110-3.43h16.307a1.715 1.715 0 110 3.43z" fill="#ABBFD8"></path><path d="M57.872 37.696H17.23v13.17a2 2 0 002 2h36.642a2 2 0 002-2v-13.17z" fill="#0263D1"></path><path d="M46.484.628V8.77a3 3 0 003 3h8.143L46.484.628z" fill="#DBDADA"></path><path d="M25.531 41.8h2.716c.83 0 1.56.173 2.188.517.618.345 1.1.827 1.437 1.447.337.62.505 1.343.505 2.146 0 .816-.168 1.527-.505 2.147a3.596 3.596 0 01-1.437 1.447c-.628.344-1.357.516-2.188.516h-2.716V41.8zm2.649 6.75c.864 0 1.526-.229 1.986-.7.449-.47.685-1.113.685-1.94 0-.814-.236-1.457-.685-1.928-.46-.47-1.122-.712-1.986-.712h-1.134v5.28h1.134zM37.61 50.204c-.786 0-1.504-.184-2.144-.563a3.98 3.98 0 01-1.504-1.56c-.37-.655-.55-1.378-.55-2.17 0-.781.18-1.504.55-2.17.36-.654.864-1.171 1.504-1.55a4.14 4.14 0 012.144-.574 4.1 4.1 0 012.132.574c.64.379 1.145.896 1.515 1.55.36.666.55 1.389.55 2.17 0 .792-.19 1.515-.55 2.17a4.086 4.086 0 01-1.515 1.56c-.64.38-1.347.563-2.132.563zm0-1.47c.493 0 .942-.114 1.358-.355.404-.23.729-.563.965-1a2.99 2.99 0 00.359-1.468c0-.552-.124-1.034-.36-1.47a2.633 2.633 0 00-.964-.999 2.759 2.759 0 00-1.358-.355c-.494 0-.954.126-1.358.355-.404.242-.73.574-.965 1-.236.435-.348.917-.348 1.468 0 .552.112 1.045.348 1.47.235.436.56.769.965.999.404.24.864.355 1.358.355zM46.936 50.204c-.785 0-1.492-.184-2.132-.563a4.085 4.085 0 01-1.526-1.55c-.37-.654-.55-1.377-.55-2.18 0-.793.18-1.516.55-2.17.37-.654.875-1.171 1.526-1.55a4.1 4.1 0 012.132-.574c1.212 0 2.211.448 3.008 1.343l-1.066 1.056c-.516-.62-1.167-.93-1.93-.93a2.74 2.74 0 00-1.37.356c-.415.23-.74.563-.976.988-.236.436-.348.93-.348 1.48 0 .563.112 1.057.348 1.481.236.437.561.77.976 1 .404.229.865.343 1.37.343.841 0 1.548-.355 2.12-1.079l1.078 1.045a4.042 4.042 0 01-1.414 1.125 4.201 4.201 0 01-1.796.379z" fill="#fff"></path><path d="M57.872 37.695H17.23v13.17a2 2 0 002 2h36.642a2 2 0 002-2v-13.17z" fill="#CC4B4C"></path><path d="M46.485.63v8.143a3 3 0 003 3h8.144L46.485.63z" fill="#CED5DE"></path><path d="M27.569 50.331h-1.544v-9.476h2.726c.402 0 .801.064 1.195.193a3.25 3.25 0 011.06.579c.314.256.567.568.76.932.193.364.29.773.29 1.228 0 .48-.082.915-.245 1.305-.152.375-.385.71-.682.984a3.073 3.073 0 01-1.054.617 4.056 4.056 0 01-1.363.218h-1.144v3.42zm0-8.306v3.755h1.414c.188 0 .374-.032.56-.097a1.41 1.41 0 00.507-.315c.155-.146.279-.35.373-.61.094-.262.14-.586.14-.971a2.62 2.62 0 00-.063-.533 1.537 1.537 0 00-.263-.579 1.56 1.56 0 00-.56-.462c-.24-.125-.558-.187-.952-.187H27.57zm13.95 3.305c0 .78-.084 1.447-.251 2-.168.553-.38 1.015-.637 1.389a3.27 3.27 0 01-.868.88 4.359 4.359 0 01-.932.483 3.85 3.85 0 01-.823.206 5.485 5.485 0 01-.553.043H33.87v-9.476h2.854c.797 0 1.498.127 2.102.38.603.252 1.106.59 1.504 1.009.399.419.696.898.894 1.433.197.536.296 1.087.296 1.653zm-4.577 3.87c1.046 0 1.8-.334 2.263-1.003.462-.668.694-1.637.694-2.906a4.92 4.92 0 00-.142-1.17 2.503 2.503 0 00-.546-1.047c-.27-.313-.636-.566-1.1-.759-.462-.193-1.062-.29-1.8-.29h-.9V49.2h1.53zm8.383-7.175v2.983h3.96v1.055h-3.96v4.268h-1.569v-9.476h5.927v1.17h-4.358z" fill="#fff"></path><path d="M46.765 20.094L35.03 8.646H8.122a2 2 0 00-2 2v48.378a2 2 0 002 2h36.643a2 2 0 002-2v-38.93z" fill="url(#paint2_linear_7560_13082)"></path><path d="M46.765 45.852H6.122v13.17a2 2 0 002 2h36.643a2 2 0 002-2v-13.17z" fill="#CC4B4C"></path><path d="M35.377 8.787v8.143a3 3 0 003 3h8.143L35.377 8.787z" fill="#CED5DE"></path><path d="M18.462 39.983a1.51 1.51 0 01-.91-.306c-.978-.735-1.11-1.552-1.048-2.109.171-1.53 2.064-3.133 5.629-4.766 1.414-3.1 2.76-6.919 3.562-10.11-.939-2.042-1.85-4.692-1.186-6.247.233-.545.524-.962 1.067-1.143a4.62 4.62 0 01.955-.161c.474 0 .89.61 1.186.986.277.354.907 1.103-.35 6.397 1.267 2.618 3.063 5.285 4.784 7.112 1.233-.223 2.294-.337 3.158-.337 1.473 0 2.365.343 2.73 1.05.3.585.177 1.269-.367 2.032-.524.732-1.247 1.12-2.088 1.12-1.144 0-2.476-.722-3.96-2.15-2.668.559-5.784 1.553-8.303 2.655-.786 1.668-1.54 3.012-2.24 3.998-.965 1.35-1.796 1.98-2.619 1.98zm2.504-4.82c-2.01 1.129-2.83 2.057-2.889 2.58-.009.087-.034.314.406.65.14-.043.958-.417 2.483-3.23zm12.824-4.178c.767.59.954.888 1.455.888.22 0 .848-.01 1.138-.415.14-.196.195-.322.216-.39-.115-.061-.269-.185-1.105-.185-.474 0-1.072.021-1.704.102zm-7.025-6.19a67.064 67.064 0 01-2.515 7.114 46.991 46.991 0 016.11-1.9c-1.27-1.475-2.539-3.316-3.595-5.214zm-.57-7.958c-.093.031-1.251 1.652.09 3.025.892-1.99-.05-3.038-.09-3.025z" fill="#CC4B4C"></path><path d="M16.461 58.488h-1.543v-9.476h2.725c.403 0 .802.064 1.196.193.394.128.747.321 1.06.578.314.257.567.568.76.932.192.364.289.773.289 1.228 0 .48-.082.915-.245 1.305-.151.375-.384.71-.681.984a3.072 3.072 0 01-1.054.617 4.056 4.056 0 01-1.363.218H16.46l.001 3.42zm0-8.306v3.754h1.415c.188 0 .374-.032.56-.097a1.41 1.41 0 00.507-.315 1.54 1.54 0 00.372-.61c.095-.262.141-.585.141-.97 0-.155-.021-.334-.063-.534a1.538 1.538 0 00-.264-.578 1.557 1.557 0 00-.56-.463c-.24-.124-.557-.186-.951-.186l-1.157-.001zm13.95 3.304c0 .78-.083 1.447-.25 2-.168.553-.38 1.015-.637 1.389a3.27 3.27 0 01-.868.88 4.354 4.354 0 01-.932.483 3.845 3.845 0 01-.823.206 5.487 5.487 0 01-.553.044h-3.587v-9.476h2.854c.798 0 1.499.127 2.102.379.604.252 1.106.59 1.505 1.009.399.42.696.898.893 1.433.198.536.297 1.087.297 1.653zm-4.576 3.87c1.045 0 1.8-.334 2.262-1.002.463-.669.694-1.638.694-2.906 0-.394-.047-.785-.14-1.17a2.503 2.503 0 00-.547-1.048c-.27-.313-.637-.566-1.1-.759-.462-.192-1.062-.29-1.8-.29h-.9v7.175h1.53zm8.383-7.174v2.983h3.96v1.054h-3.96v4.269h-1.569v-9.476h5.927v1.17h-4.358z" fill="#fff"></path><path d="M4.253 25.594h55.175a3.917 3.917 0 013.922 3.922V58.15a3.917 3.917 0 01-3.922 3.923H4.253a3.917 3.917 0 01-3.922-3.923V29.516a3.917 3.917 0 013.922-3.922z" fill="url(#paint3_linear_7560_13082)"></path><defs><linearGradient id="paint0_linear_7560_13082" x1="31.8408" y1="62.072" x2="31.7056" y2="7.81158" gradientUnits="userSpaceOnUse"><stop stop-color="#0A4E9C"></stop><stop offset="1" stop-color="#2487F8"></stop></linearGradient><linearGradient id="paint1_linear_7560_13082" x1="37.5519" y1="0.487305" x2="37.5519" y2="52.866" gradientUnits="userSpaceOnUse"><stop stop-color="#fff"></stop><stop offset="1" stop-color="#C4CEDB"></stop></linearGradient><linearGradient id="paint2_linear_7560_13082" x1="26.4437" y1="8.64551" x2="26.4437" y2="61.0237" gradientUnits="userSpaceOnUse"><stop stop-color="#fff"></stop><stop offset="1" stop-color="#C4CEDB"></stop></linearGradient><linearGradient id="paint3_linear_7560_13082" x1="31.8408" y1="62.0718" x2="31.7797" y2="25.593" gradientUnits="userSpaceOnUse"><stop stop-color="#2075D7"></stop><stop offset="1" stop-color="#429AFF"></stop></linearGradient></defs></svg>