<svg width="20" height="20" viewBox="0 0 20 20" fill="none" xmlns="http://www.w3.org/2000/svg" class="h-5 w-5 tab:h-6 tab:w-6"><path d="M4.31 15.11V8.465c0-.237.255-.379.444-.247l2.848 1.986c.24.168.555.168.796 0l2.848-1.986c.19-.132.444.01.444.247v2.536c0 .492.384.89.858.89h.619c.473 0 .857-.398.857-.89V4.583A.573.573 0 0013.462 4c-.223 0-.442.07-.628.2L8.4 7.306a.692.692 0 01-.8 0L3.122 4.152A.833.833 0 002.642 4 .655.655 0 002 4.667V15.11c0 .492.384.891.857.891h.595c.474 0 .858-.399.858-.89zM12 14.219c0-.328.256-.594.571-.594h4.858c.315 0 .571.266.571.594v1.187a.583.583 0 01-.571.594H12.57a.583.583 0 01-.571-.594V14.22z" fill="white"></path></svg>