<svg width="24" height="24" viewBox="0 0 24 24" fill="none" xmlns="http://www.w3.org/2000/svg" class="size-[23px]"><g clip-path="url(#clip0_3068_7068)"><path d="M20.604 2.508H3.408c-1.163 0-2.11.946-2.11 2.11V18.68c0 .388.315.703.704.703H22.01a.703.703 0 00.703-.703V4.617c0-1.163-.946-2.11-2.109-2.11z" fill="url(#paint0_linear_3068_7068)"></path><path d="M23.293 18.68H.715c-.457 0-.826.438-.684.872a2.818 2.818 0 002.674 1.94h18.602c1.299 0 2.296-.869 2.652-1.868a.707.707 0 00-.666-.944z" fill="url(#paint1_linear_3068_7068)"></path><g filter="url(#filter0_d_3068_7068)"><path d="M7.138 14.81c.22-.213.805-.778 1.586-.991.935-.254 1.853.07 2.805.991.26.252.682.252.942 0 1.477-1.428 2.914-1.428 4.391 0 .416.402 1.138.122 1.138-.456v-6.45a.634.634 0 00-.195-.457c-1.84-1.78-3.927-1.917-5.805-.416-1.878-1.501-3.965-1.364-5.805.416A.644.644 0 006 7.903v6.451c0 .573.717.863 1.138.456z" fill="url(#paint2_linear_3068_7068)"></path><path d="M7.138 14.81c.22-.213.805-.778 1.586-.991.935-.254 1.853.07 2.805.991.26.252.682.252.942 0 1.477-1.428 2.914-1.428 4.391 0 .416.402 1.138.122 1.138-.456v-6.45a.634.634 0 00-.195-.457c-1.84-1.78-3.927-1.917-5.805-.416-1.878-1.501-3.965-1.364-5.805.416A.644.644 0 006 7.903v6.451c0 .573.717.863 1.138.456z" fill="url(#paint3_radial_3068_7068)" fill-opacity="0.2"></path></g></g><defs><filter id="filter0_d_3068_7068" x="4" y="5" width="16" height="13" filterUnits="userSpaceOnUse" color-interpolation-filters="sRGB"><feFlood flood-opacity="0" result="BackgroundImageFix"></feFlood><feColorMatrix in="SourceAlpha" values="0 0 0 0 0 0 0 0 0 0 0 0 0 0 0 0 0 0 127 0" result="hardAlpha"></feColorMatrix><feOffset dy="1"></feOffset><feGaussianBlur stdDeviation="1"></feGaussianBlur><feComposite in2="hardAlpha" operator="out"></feComposite><feColorMatrix values="0 0 0 0 0.019375 0 0 0 0 0.3875 0 0 0 0 0.300882 0 0 0 0.2 0"></feColorMatrix><feBlend in2="BackgroundImageFix" result="effect1_dropShadow_3068_7068"></feBlend><feBlend in="SourceGraphic" in2="effect1_dropShadow_3068_7068" result="shape"></feBlend></filter><linearGradient id="paint0_linear_3068_7068" x1="19.5" y1="18" x2="4.6426" y2="-0.116942" gradientUnits="userSpaceOnUse"><stop stop-color="#30AC9A"></stop><stop offset="1" stop-color="#7ED885"></stop></linearGradient><linearGradient id="paint1_linear_3068_7068" x1="12" y1="21.4923" x2="12.0397" y2="17.5004" gradientUnits="userSpaceOnUse"><stop stop-color="#149E8A"></stop><stop offset="1" stop-color="#67F2C6"></stop></linearGradient><linearGradient id="paint2_linear_3068_7068" x1="6.31111" y1="6.59134" x2="7.27517" y2="14.5141" gradientUnits="userSpaceOnUse"><stop stop-color="#fff"></stop><stop offset="1" stop-color="#E1FFEA"></stop></linearGradient><radialGradient id="paint3_radial_3068_7068" cx="0" cy="0" r="1" gradientUnits="userSpaceOnUse" gradientTransform="rotate(44.058 -6.783 13.184) scale(5.93718 5.00264)"><stop stop-color="#fff"></stop><stop offset="1" stop-color="#fff" stop-opacity="0"></stop></radialGradient><clipPath id="clip0_3068_7068"><path fill="#fff" d="M0 0H24V24H0z"></path></clipPath></defs></svg>