<svg width="72" height="92" viewBox="0 0 72 92" fill="none" xmlns="http://www.w3.org/2000/svg"><path d="M71.5 20L51 0H6.5a6 6 0 00-6 6v79.5a6 6 0 006 6h59a6 6 0 006-6V20z" fill="#fff"></path><path d="M71.5 65H.5v20.5a6 6 0 006 6h59a6 6 0 006-6V65z" fill="#CC4B4C"></path><path d="M51.607.248v16.466a3 3 0 003 3h16.467L51.607.248z" fill="#DBDADA"></path><path d="M22.058 54.746c-.571 0-1.12-.185-1.588-.535-1.71-1.283-1.94-2.71-1.832-3.683.299-2.675 3.606-5.474 9.832-8.326 2.471-5.415 4.822-12.087 6.224-17.661-1.64-3.569-3.234-8.198-2.072-10.914.407-.95.915-1.68 1.863-1.996a8.065 8.065 0 011.669-.282c.828 0 1.556 1.066 2.072 1.723.484.618 1.583 1.927-.613 11.175 2.214 4.573 5.352 9.233 8.359 12.423 2.154-.39 4.007-.588 5.516-.588 2.573 0 4.132.6 4.768 1.835.526 1.022.31 2.216-.64 3.548-.916 1.28-2.178 1.957-3.648 1.957-1.998 0-4.324-1.262-6.918-3.754-4.66.974-10.103 2.713-14.503 4.636-1.373 2.915-2.69 5.262-3.915 6.984-1.684 2.358-3.136 3.458-4.574 3.458zm4.374-8.42c-3.511 1.972-4.942 3.594-5.046 4.507-.016.151-.06.549.708 1.137.245-.077 1.674-.73 4.338-5.645zm22.403-7.298c1.34 1.03 1.666 1.55 2.542 1.55.384 0 1.48-.016 1.988-.724.244-.343.34-.564.377-.682-.202-.107-.47-.324-1.93-.324a24.03 24.03 0 00-2.977.18zM36.563 28.214a117.125 117.125 0 01-4.393 12.427 82.085 82.085 0 0110.672-3.319c-2.218-2.576-4.434-5.793-6.279-9.108zm-.997-13.902c-.161.055-2.185 2.887.158 5.284 1.559-3.475-.087-5.307-.158-5.284z" fill="#CC4B4C"></path><path d="M18.561 87.071h-2.696V70.518h4.761c.703 0 1.4.111 2.088.336a5.676 5.676 0 011.853 1.01c.547.45.99.993 1.326 1.629.337.636.506 1.35.506 2.145 0 .84-.143 1.599-.427 2.28a4.765 4.765 0 01-1.191 1.72 5.368 5.368 0 01-1.842 1.077c-.718.254-1.513.38-2.38.38h-2l.002 5.976zm0-14.51v6.559h2.471c.329 0 .654-.056.977-.17.322-.111.618-.295.888-.55.27-.255.486-.61.65-1.066.165-.457.247-1.022.247-1.696 0-.27-.038-.581-.112-.931a2.686 2.686 0 00-.46-1.01 2.722 2.722 0 00-.978-.809c-.418-.217-.974-.325-1.662-.325l-2.02-.002zm24.37 5.773c0 1.362-.146 2.527-.438 3.493-.293.966-.662 1.774-1.113 2.427-.45.652-.954 1.164-1.516 1.539a7.607 7.607 0 01-1.628.843 6.718 6.718 0 01-1.438.36 9.57 9.57 0 01-.965.075h-6.266V70.518h4.986c1.393 0 2.617.221 3.672.662 1.054.44 1.931 1.03 2.628 1.762a7.237 7.237 0 011.56 2.504c.346.937.518 1.9.518 2.888zm-7.995 6.76c1.826 0 3.144-.583 3.952-1.75.809-1.169 1.213-2.86 1.213-5.077 0-.688-.082-1.37-.247-2.044a4.372 4.372 0 00-.954-1.83c-.472-.547-1.112-.989-1.92-1.326-.81-.336-1.857-.506-3.145-.506h-1.572v12.534h2.672zM49.58 72.562v5.211h6.918v1.842H49.58v7.457h-2.74V70.518h10.353v2.043H49.58z" fill="#fff"></path></svg>