<svg width="17" height="21" viewBox="0 0 17 21" fill="none" xmlns="http://www.w3.org/2000/svg" class="size-[23px]"><path d="M14.7 21H4.2A4.2 4.2 0 010 16.8V4.2A4.2 4.2 0 014.2 0h10.5a2.1 2.1 0 012.1 2.1v16.8a2.1 2.1 0 01-2.1 2.1z" fill="url(#paint0_linear_3068_7078)"></path><path d="M14.7 21H4.2A4.2 4.2 0 010 16.8V4.2A4.2 4.2 0 014.2 0h10.5a2.1 2.1 0 012.1 2.1v16.8a2.1 2.1 0 01-2.1 2.1z" fill="url(#paint1_radial_3068_7078)" fill-opacity="0.2"></path><g filter="url(#filter0_d_3068_7078)"><path d="M14.7 0H8.4v9.45a1.05 1.05 0 001.793.742l1.357-1.357 1.358 1.357A1.05 1.05 0 0014.7 9.45V0z" fill="url(#paint2_linear_3068_7078)"></path><path d="M14.7 0H8.4v9.45a1.05 1.05 0 001.793.742l1.357-1.357 1.358 1.357A1.05 1.05 0 0014.7 9.45V0z" fill="url(#paint3_radial_3068_7078)" fill-opacity="0.2"></path></g><defs><filter id="filter0_d_3068_7078" x="6.40039" y="0" width="10.3008" height="14.5" filterUnits="userSpaceOnUse" color-interpolation-filters="sRGB"><feFlood flood-opacity="0" result="BackgroundImageFix"></feFlood><feColorMatrix in="SourceAlpha" values="0 0 0 0 0 0 0 0 0 0 0 0 0 0 0 0 0 0 127 0" result="hardAlpha"></feColorMatrix><feOffset dy="2"></feOffset><feGaussianBlur stdDeviation="1"></feGaussianBlur><feComposite in2="hardAlpha" operator="out"></feComposite><feColorMatrix values="0 0 0 0 0.509722 0 0 0 0 0.374728 0 0 0 0 0.0410608 0 0 0 0.15 0"></feColorMatrix><feBlend in2="BackgroundImageFix" result="effect1_dropShadow_3068_7078"></feBlend><feBlend in="SourceGraphic" in2="effect1_dropShadow_3068_7078" result="shape"></feBlend></filter><linearGradient id="paint0_linear_3068_7078" x1="1.59896" y1="-1.00002" x2="9.65993" y2="23.7198" gradientUnits="userSpaceOnUse"><stop stop-color="#FBE77F"></stop><stop offset="1" stop-color="#F3AF1F"></stop></linearGradient><radialGradient id="paint1_radial_3068_7078" cx="0" cy="0" r="1" gradientUnits="userSpaceOnUse" gradientTransform="matrix(7.99999 10.0002 -6.6344 5.3074 1.599 4)"><stop stop-color="#fff"></stop><stop offset="1" stop-color="#fff" stop-opacity="0"></stop></radialGradient><linearGradient id="paint2_linear_3068_7078" x1="6.84152" y1="-2.4937" x2="13.0033" y2="11.3889" gradientUnits="userSpaceOnUse"><stop stop-color="#FFB948"></stop><stop offset="1" stop-color="#EE1E8B"></stop></linearGradient><radialGradient id="paint3_radial_3068_7078" cx="0" cy="0" r="1" gradientUnits="userSpaceOnUse" gradientTransform="matrix(3 5 -3.00007 1.80004 9 2)"><stop stop-color="#fff"></stop><stop offset="1" stop-color="#fff" stop-opacity="0"></stop></radialGradient></defs></svg>