<svg width="22" height="22" viewBox="0 0 22 22" fill="none" xmlns="http://www.w3.org/2000/svg" className="size-[23px]">
    <path d="M22 3.885v14.229c0 1.03-.375 2.02-1.043 2.748-.668.729-1.574 1.138-2.52 1.138H3.563c-.468 0-.93-.1-1.363-.296a3.559 3.559 0 01-1.156-.842C.713 20.5.45 20.072.271 19.6A4.195 4.195 0 010 18.113V3.886c0-1.031.375-2.02 1.044-2.748C1.712.409 2.618 0 3.561 0h14.876c.945 0 1.85.41 2.518 1.138C21.625 1.867 22 2.855 22 3.886z" fill="url(#paint0_linear_68_58)"></path>
    <path d="M22 3.885v14.229c0 1.03-.375 2.02-1.043 2.748-.668.729-1.574 1.138-2.52 1.138H3.563c-.468 0-.93-.1-1.363-.296a3.559 3.559 0 01-1.156-.842C.713 20.5.45 20.072.271 19.6A4.195 4.195 0 010 18.113V3.886c0-1.031.375-2.02 1.044-2.748C1.712.409 2.618 0 3.561 0h14.876c.945 0 1.85.41 2.518 1.138C21.625 1.867 22 2.855 22 3.886z" fill="url(#paint1_radial_68_58)" fill-opacity="0.2"></path>
    <g filter="url(#filter0_d_68_58)">
        <g filter="url(#filter1_d_68_58)">
            <path fill-rule="evenodd" clip-rule="evenodd" d="M12.24 14.175L11 13.17l-1.24 1.005.192.193a.957.957 0 010 1.353l-.193.193a.41.41 0 01-.58 0l-.87-.87-2.675 2.675a.957.957 0 01-1.353-1.353l2.674-2.675-.87-.87a.41.41 0 010-.58l.193-.194a.957.957 0 011.354 0l.193.193.804-.992-4.477-3.627a.41.41 0 01-.151-.32v-2.89A.41.41 0 014.41 4h2.891a.41.41 0 01.319.152l3.38 4.17 3.379-4.17A.41.41 0 0114.697 4h2.892a.41.41 0 01.41.41v2.892a.41.41 0 01-.152.319l-4.476 3.627.804.992.192-.193a.957.957 0 011.354 0l.193.194c.16.16.16.42 0 .58l-.87.87 2.675 2.675a.957.957 0 01-1.354 1.354l-2.675-2.675-.87.87a.41.41 0 01-.58 0l-.193-.194a.957.957 0 010-1.353l.192-.193z" fill="#FFE278"></path>
        </g>
    </g>
    <defs>
        <filter id="filter0_d_68_58" x="2" y="3" width="18" height="18" filterUnits="userSpaceOnUse" color-interpolation-filters="sRGB">
            <feFlood flood-opacity="0" result="BackgroundImageFix"></feFlood>
            <feColorMatrix in="SourceAlpha" values="0 0 0 0 0 0 0 0 0 0 0 0 0 0 0 0 0 0 127 0" result="hardAlpha"></feColorMatrix>
            <feOffset dy="1"></feOffset>
            <feGaussianBlur stdDeviation="1"></feGaussianBlur>
            <feComposite in2="hardAlpha" operator="out"></feComposite>
            <feColorMatrix values="0 0 0 0 0.239216 0 0 0 0 0.0784314 0 0 0 0 0.00392157 0 0 0 0.1 0"></feColorMatrix>
            <feBlend in2="BackgroundImageFix" result="effect1_dropShadow_68_58"></feBlend>
            <feBlend in="SourceGraphic" in2="effect1_dropShadow_68_58" result="shape"></feBlend>
        </filter>
        <filter id="filter1_d_68_58" x="3.00024" y="3" width="15.9998" height="15.9998" filterUnits="userSpaceOnUse" color-interpolation-filters="sRGB">
            <feFlood flood-opacity="0" result="BackgroundImageFix"></feFlood>
            <feColorMatrix in="SourceAlpha" values="0 0 0 0 0 0 0 0 0 0 0 0 0 0 0 0 0 0 127 0" result="hardAlpha"></feColorMatrix>
            <feOffset></feOffset>
            <feGaussianBlur stdDeviation="0.5"></feGaussianBlur>
            <feComposite in2="hardAlpha" operator="out"></feComposite>
            <feColorMatrix values="0 0 0 0 0.368627 0 0 0 0 0.290196 0 0 0 0 0.0235294 0 0 0 0.06 0"></feColorMatrix>
            <feBlend in2="BackgroundImageFix" result="effect1_dropShadow_68_58"></feBlend>
            <feBlend in="SourceGraphic" in2="effect1_dropShadow_68_58" result="shape"></feBlend>
        </filter>
        <linearGradient id="paint0_linear_68_58" x1="-5.44369" y1="-5.225" x2="20.4642" y2="32.1927" gradientUnits="userSpaceOnUse">
            <stop stop-color="#FFB948"></stop>
            <stop offset="1" stop-color="#EE1E8B"></stop>
        </linearGradient>
        <radialGradient id="paint1_radial_68_58" cx="0" cy="0" r="1" gradientUnits="userSpaceOnUse" gradientTransform="matrix(10.47617 10.4764 -7.1241 7.12396 2.094 4.19)">
            <stop stop-color="#fff"></stop>
            <stop offset="1" stop-color="#fff" stop-opacity="0"></stop>
        </radialGradient>
    </defs>
</svg>