<svg width="24" height="24" viewBox="0 0 24 24" fill="none" xmlns="http://www.w3.org/2000/svg" class="size-[23px]"><g clip-path="url(#clip0_3068_7057)"><path d="M12 24c6.627 0 12-5.373 12-12S18.627 0 12 0 0 5.373 0 12s5.373 12 12 12z" fill="url(#paint0_linear_3068_7057)"></path><g filter="url(#filter0_d_3068_7057)"><path d="M12.001 12.499A3.749 3.749 0 1012 5 3.749 3.749 0 0012 12.5zm0 1.675c-3.624 0-6.56 1.679-6.56 3.748 0 2.07 2.939 3.748 6.56 3.748 3.622 0 6.56-1.676 6.56-3.748 0-2.07-2.936-3.748-6.56-3.748z" fill="url(#paint1_linear_3068_7057)"></path></g><path d="M12.001 14.174c-3.624 0-6.56 1.679-6.56 3.748 0 2.07 2.939 3.748 6.56 3.748 3.622 0 6.56-1.676 6.56-3.748 0-2.07-2.936-3.748-6.56-3.748z" fill="url(#paint2_radial_3068_7057)"></path><path d="M12.002 12.499A3.749 3.749 0 1012 5.002a3.749 3.749 0 000 7.497z" fill="url(#paint3_linear_3068_7057)"></path></g><defs><filter id="filter0_d_3068_7057" x="4.44141" y="5" width="15.1191" height="18.6699" filterUnits="userSpaceOnUse" color-interpolation-filters="sRGB"><feFlood flood-opacity="0" result="BackgroundImageFix"></feFlood><feColorMatrix in="SourceAlpha" values="0 0 0 0 0 0 0 0 0 0 0 0 0 0 0 0 0 0 127 0" result="hardAlpha"></feColorMatrix><feOffset dy="1"></feOffset><feGaussianBlur stdDeviation="0.5"></feGaussianBlur><feComposite in2="hardAlpha" operator="out"></feComposite><feColorMatrix values="0 0 0 0 0.0072222 0 0 0 0 0.0761711 0 0 0 0 0.166667 0 0 0 0.1 0"></feColorMatrix><feBlend in2="BackgroundImageFix" result="effect1_dropShadow_3068_7057"></feBlend><feBlend in="SourceGraphic" in2="effect1_dropShadow_3068_7057" result="shape"></feBlend></filter><linearGradient id="paint0_linear_3068_7057" x1="12" y1="24" x2="12" y2="0" gradientUnits="userSpaceOnUse"><stop stop-color="#4779F8"></stop><stop offset="1" stop-color="#51C2FF"></stop></linearGradient><linearGradient id="paint1_linear_3068_7057" x1="5.82351" y1="6.56698" x2="27.5452" y2="23.095" gradientUnits="userSpaceOnUse"><stop stop-color="#EBF5FF"></stop><stop offset="1" stop-color="#E4ECFF"></stop></linearGradient><radialGradient id="paint2_radial_3068_7057" cx="0" cy="0" r="1" gradientUnits="userSpaceOnUse" gradientTransform="matrix(3 4 -4.52229 3.39172 7.5 15)"><stop stop-color="#fff"></stop><stop offset="1" stop-color="#fff" stop-opacity="0"></stop></radialGradient><linearGradient id="paint3_linear_3068_7057" x1="8.47223" y1="5.70488" x2="18.6046" y2="15.4975" gradientUnits="userSpaceOnUse"><stop stop-color="#E7F3FF"></stop><stop offset="1" stop-color="#E3EAFF"></stop></linearGradient><clipPath id="clip0_3068_7057"><path fill="#fff" d="M0 0H24V24H0z"></path></clipPath></defs></svg>